<mxfile host="app.diagrams.net" modified="2024-02-13T22:19:18.570Z" agent="Mozilla/5.0 (Windows NT 10.0; Win64; x64) AppleWebKit/537.36 (KHTML, like Gecko) Chrome/121.0.0.0 Safari/537.36" etag="keJWSb1Ta6yITplS8VkW" version="23.0.1" type="github">
  <diagram id="C5RBs43oDa-KdzZeNtuy" name="Page-1">
    <mxGraphModel dx="1568" dy="823" grid="1" gridSize="10" guides="1" tooltips="1" connect="1" arrows="1" fold="1" page="1" pageScale="1" pageWidth="827" pageHeight="1169" math="0" shadow="0">
      <root>
        <mxCell id="WIyWlLk6GJQsqaUBKTNV-0" />
        <mxCell id="WIyWlLk6GJQsqaUBKTNV-1" parent="WIyWlLk6GJQsqaUBKTNV-0" />
        <mxCell id="ejfQ8xCvr1rSi-DFD9ne-2" style="edgeStyle=orthogonalEdgeStyle;rounded=0;orthogonalLoop=1;jettySize=auto;html=1;exitX=1;exitY=0.25;exitDx=0;exitDy=0;entryX=0;entryY=0.25;entryDx=0;entryDy=0;" parent="WIyWlLk6GJQsqaUBKTNV-1" source="WIyWlLk6GJQsqaUBKTNV-3" target="ejfQ8xCvr1rSi-DFD9ne-1" edge="1">
          <mxGeometry relative="1" as="geometry" />
        </mxCell>
        <mxCell id="ejfQ8xCvr1rSi-DFD9ne-3" style="edgeStyle=orthogonalEdgeStyle;rounded=0;orthogonalLoop=1;jettySize=auto;html=1;exitX=1;exitY=0.5;exitDx=0;exitDy=0;" parent="WIyWlLk6GJQsqaUBKTNV-1" target="ejfQ8xCvr1rSi-DFD9ne-4" edge="1">
          <mxGeometry relative="1" as="geometry">
            <mxPoint x="560" y="344" as="targetPoint" />
            <mxPoint x="280" y="104" as="sourcePoint" />
          </mxGeometry>
        </mxCell>
        <mxCell id="ejfQ8xCvr1rSi-DFD9ne-7" style="edgeStyle=orthogonalEdgeStyle;rounded=0;orthogonalLoop=1;jettySize=auto;html=1;exitX=0.5;exitY=1;exitDx=0;exitDy=0;entryX=0.5;entryY=0;entryDx=0;entryDy=0;" parent="WIyWlLk6GJQsqaUBKTNV-1" source="WIyWlLk6GJQsqaUBKTNV-3" target="WIyWlLk6GJQsqaUBKTNV-6" edge="1">
          <mxGeometry relative="1" as="geometry" />
        </mxCell>
        <mxCell id="WIyWlLk6GJQsqaUBKTNV-3" value="raw enviro data&lt;br&gt;raw audio data&lt;br&gt;metadata" style="rounded=1;whiteSpace=wrap;html=1;fontSize=12;glass=0;strokeWidth=1;shadow=0;" parent="WIyWlLk6GJQsqaUBKTNV-1" vertex="1">
          <mxGeometry x="160" y="60" width="120" height="60" as="geometry" />
        </mxCell>
        <mxCell id="Jdti5JN_-8dRYhAPn4bn-4" style="edgeStyle=orthogonalEdgeStyle;rounded=0;orthogonalLoop=1;jettySize=auto;html=1;exitX=0.5;exitY=1;exitDx=0;exitDy=0;entryX=0.5;entryY=0;entryDx=0;entryDy=0;" edge="1" parent="WIyWlLk6GJQsqaUBKTNV-1" source="WIyWlLk6GJQsqaUBKTNV-6" target="WIyWlLk6GJQsqaUBKTNV-10">
          <mxGeometry relative="1" as="geometry" />
        </mxCell>
        <mxCell id="WIyWlLk6GJQsqaUBKTNV-6" value="import data to R" style="rhombus;whiteSpace=wrap;html=1;shadow=0;fontFamily=Helvetica;fontSize=12;align=center;strokeWidth=1;spacing=6;spacingTop=-4;" parent="WIyWlLk6GJQsqaUBKTNV-1" vertex="1">
          <mxGeometry x="160" y="158" width="120" height="80" as="geometry" />
        </mxCell>
        <mxCell id="ejfQ8xCvr1rSi-DFD9ne-8" style="edgeStyle=orthogonalEdgeStyle;rounded=0;orthogonalLoop=1;jettySize=auto;html=1;exitX=1;exitY=0.5;exitDx=0;exitDy=0;entryX=0;entryY=0.5;entryDx=0;entryDy=0;" parent="WIyWlLk6GJQsqaUBKTNV-1" source="WIyWlLk6GJQsqaUBKTNV-10" edge="1" target="ejfQ8xCvr1rSi-DFD9ne-9">
          <mxGeometry relative="1" as="geometry">
            <mxPoint x="320" y="330" as="targetPoint" />
          </mxGeometry>
        </mxCell>
        <mxCell id="ejfQ8xCvr1rSi-DFD9ne-18" style="edgeStyle=orthogonalEdgeStyle;rounded=0;orthogonalLoop=1;jettySize=auto;html=1;exitX=0;exitY=0.5;exitDx=0;exitDy=0;entryX=0.5;entryY=0;entryDx=0;entryDy=0;" parent="WIyWlLk6GJQsqaUBKTNV-1" source="WIyWlLk6GJQsqaUBKTNV-10" edge="1" target="ejfQ8xCvr1rSi-DFD9ne-19">
          <mxGeometry relative="1" as="geometry">
            <mxPoint x="82" y="370" as="targetPoint" />
            <mxPoint x="162" y="330" as="sourcePoint" />
          </mxGeometry>
        </mxCell>
        <mxCell id="Jdti5JN_-8dRYhAPn4bn-7" style="edgeStyle=orthogonalEdgeStyle;rounded=0;orthogonalLoop=1;jettySize=auto;html=1;exitX=0.5;exitY=1;exitDx=0;exitDy=0;entryX=0.5;entryY=0;entryDx=0;entryDy=0;" edge="1" parent="WIyWlLk6GJQsqaUBKTNV-1" source="WIyWlLk6GJQsqaUBKTNV-10" target="ejfQ8xCvr1rSi-DFD9ne-11">
          <mxGeometry relative="1" as="geometry" />
        </mxCell>
        <mxCell id="WIyWlLk6GJQsqaUBKTNV-10" value="clean and&lt;br&gt;&amp;nbsp;merge data" style="rhombus;whiteSpace=wrap;html=1;shadow=0;fontFamily=Helvetica;fontSize=12;align=center;strokeWidth=1;spacing=6;spacingTop=-4;" parent="WIyWlLk6GJQsqaUBKTNV-1" vertex="1">
          <mxGeometry x="165" y="267" width="110" height="92" as="geometry" />
        </mxCell>
        <mxCell id="ejfQ8xCvr1rSi-DFD9ne-1" value="COPY: raw data&lt;br style=&quot;border-color: var(--border-color);&quot;&gt;metadata" style="rounded=1;whiteSpace=wrap;html=1;fontSize=12;glass=0;strokeWidth=1;shadow=0;" parent="WIyWlLk6GJQsqaUBKTNV-1" vertex="1">
          <mxGeometry x="340" y="60" width="120" height="60" as="geometry" />
        </mxCell>
        <mxCell id="ejfQ8xCvr1rSi-DFD9ne-4" value="accessible repository:&lt;br&gt;documentation&lt;br&gt;data &amp;amp; metadata&lt;br&gt;code" style="whiteSpace=wrap;html=1;" parent="WIyWlLk6GJQsqaUBKTNV-1" vertex="1">
          <mxGeometry x="460" y="370" width="130" height="70" as="geometry" />
        </mxCell>
        <mxCell id="ejfQ8xCvr1rSi-DFD9ne-9" value="COPY: clean data" style="rounded=1;whiteSpace=wrap;html=1;fontSize=12;glass=0;strokeWidth=1;shadow=0;" parent="WIyWlLk6GJQsqaUBKTNV-1" vertex="1">
          <mxGeometry x="320" y="293" width="120" height="40" as="geometry" />
        </mxCell>
        <mxCell id="ejfQ8xCvr1rSi-DFD9ne-23" value="" style="edgeStyle=orthogonalEdgeStyle;rounded=0;orthogonalLoop=1;jettySize=auto;html=1;" parent="WIyWlLk6GJQsqaUBKTNV-1" source="ejfQ8xCvr1rSi-DFD9ne-11" target="ejfQ8xCvr1rSi-DFD9ne-22" edge="1">
          <mxGeometry relative="1" as="geometry" />
        </mxCell>
        <mxCell id="ejfQ8xCvr1rSi-DFD9ne-24" style="edgeStyle=orthogonalEdgeStyle;rounded=0;orthogonalLoop=1;jettySize=auto;html=1;exitX=0.5;exitY=1;exitDx=0;exitDy=0;entryX=0.5;entryY=0;entryDx=0;entryDy=0;" parent="WIyWlLk6GJQsqaUBKTNV-1" edge="1">
          <mxGeometry relative="1" as="geometry">
            <mxPoint x="220.00000000000023" y="514" as="targetPoint" />
            <mxPoint x="217" y="454" as="sourcePoint" />
            <Array as="points">
              <mxPoint x="220" y="455" />
            </Array>
          </mxGeometry>
        </mxCell>
        <mxCell id="ejfQ8xCvr1rSi-DFD9ne-25" style="edgeStyle=orthogonalEdgeStyle;rounded=0;orthogonalLoop=1;jettySize=auto;html=1;exitX=0.5;exitY=1;exitDx=0;exitDy=0;entryX=0.5;entryY=0;entryDx=0;entryDy=0;" parent="WIyWlLk6GJQsqaUBKTNV-1" source="ejfQ8xCvr1rSi-DFD9ne-11" edge="1" target="ejfQ8xCvr1rSi-DFD9ne-27">
          <mxGeometry relative="1" as="geometry">
            <mxPoint x="290" y="550" as="targetPoint" />
          </mxGeometry>
        </mxCell>
        <mxCell id="ejfQ8xCvr1rSi-DFD9ne-17" style="edgeStyle=orthogonalEdgeStyle;rounded=0;orthogonalLoop=1;jettySize=auto;html=1;exitX=0.5;exitY=1;exitDx=0;exitDy=0;" parent="WIyWlLk6GJQsqaUBKTNV-1" source="ejfQ8xCvr1rSi-DFD9ne-9" edge="1">
          <mxGeometry relative="1" as="geometry">
            <mxPoint x="353" y="440" as="sourcePoint" />
            <mxPoint x="460" y="410" as="targetPoint" />
            <Array as="points">
              <mxPoint x="380" y="410" />
              <mxPoint x="460" y="410" />
            </Array>
          </mxGeometry>
        </mxCell>
        <mxCell id="Jdti5JN_-8dRYhAPn4bn-11" style="edgeStyle=orthogonalEdgeStyle;rounded=0;orthogonalLoop=1;jettySize=auto;html=1;exitX=0.5;exitY=1;exitDx=0;exitDy=0;entryX=0.5;entryY=0;entryDx=0;entryDy=0;" edge="1" parent="WIyWlLk6GJQsqaUBKTNV-1" source="ejfQ8xCvr1rSi-DFD9ne-19" target="Jdti5JN_-8dRYhAPn4bn-10">
          <mxGeometry relative="1" as="geometry">
            <mxPoint x="82" y="620" as="targetPoint" />
          </mxGeometry>
        </mxCell>
        <mxCell id="ejfQ8xCvr1rSi-DFD9ne-19" value="figures &amp;amp;&lt;br&gt;tables script" style="rhombus;whiteSpace=wrap;html=1;shadow=0;fontFamily=Helvetica;fontSize=12;align=center;strokeWidth=1;spacing=6;spacingTop=-4;" parent="WIyWlLk6GJQsqaUBKTNV-1" vertex="1">
          <mxGeometry x="22" y="374" width="120" height="80" as="geometry" />
        </mxCell>
        <mxCell id="ejfQ8xCvr1rSi-DFD9ne-22" value="trial 1&lt;br&gt;covariates: a1, b1, c1" style="whiteSpace=wrap;html=1;" parent="WIyWlLk6GJQsqaUBKTNV-1" vertex="1">
          <mxGeometry x="115" y="514" width="70" height="60" as="geometry" />
        </mxCell>
        <mxCell id="Jdti5JN_-8dRYhAPn4bn-8" style="edgeStyle=orthogonalEdgeStyle;rounded=0;orthogonalLoop=1;jettySize=auto;html=1;exitX=0.5;exitY=1;exitDx=0;exitDy=0;" edge="1" parent="WIyWlLk6GJQsqaUBKTNV-1" source="ejfQ8xCvr1rSi-DFD9ne-26">
          <mxGeometry relative="1" as="geometry">
            <mxPoint x="223.25" y="630" as="targetPoint" />
          </mxGeometry>
        </mxCell>
        <mxCell id="ejfQ8xCvr1rSi-DFD9ne-26" value="trial 2&lt;br style=&quot;border-color: var(--border-color);&quot;&gt;covariates: a2, b3, c5" style="whiteSpace=wrap;html=1;" parent="WIyWlLk6GJQsqaUBKTNV-1" vertex="1">
          <mxGeometry x="188" y="514" width="70" height="60" as="geometry" />
        </mxCell>
        <mxCell id="ejfQ8xCvr1rSi-DFD9ne-27" value="trial 3&lt;br style=&quot;border-color: var(--border-color);&quot;&gt;covariates: a3, b1, c5" style="whiteSpace=wrap;html=1;" parent="WIyWlLk6GJQsqaUBKTNV-1" vertex="1">
          <mxGeometry x="262" y="514" width="70" height="60" as="geometry" />
        </mxCell>
        <mxCell id="Jdti5JN_-8dRYhAPn4bn-1" value="*" style="text;html=1;align=center;verticalAlign=middle;resizable=0;points=[];autosize=1;strokeColor=none;fillColor=none;" vertex="1" parent="WIyWlLk6GJQsqaUBKTNV-1">
          <mxGeometry x="176" y="288" width="30" height="30" as="geometry" />
        </mxCell>
        <mxCell id="Jdti5JN_-8dRYhAPn4bn-2" value="*cleaning data includes checking naming&lt;br&gt;&amp;nbsp;conventions and unwarranted NAs, etc.,&lt;br&gt;as well as making sure&amp;nbsp;all data is in &lt;br&gt;&#39;wide&#39; format" style="text;html=1;align=center;verticalAlign=middle;resizable=0;points=[];autosize=1;strokeColor=none;fillColor=none;" vertex="1" parent="WIyWlLk6GJQsqaUBKTNV-1">
          <mxGeometry x="270" y="207" width="240" height="70" as="geometry" />
        </mxCell>
        <mxCell id="ejfQ8xCvr1rSi-DFD9ne-11" value="jSDM script" style="rhombus;whiteSpace=wrap;html=1;shadow=0;fontFamily=Helvetica;fontSize=12;align=center;strokeWidth=1;spacing=6;spacingTop=-4;" parent="WIyWlLk6GJQsqaUBKTNV-1" vertex="1">
          <mxGeometry x="160" y="390" width="120" height="80" as="geometry" />
        </mxCell>
        <mxCell id="Jdti5JN_-8dRYhAPn4bn-9" value="final jSDM script" style="shape=hexagon;perimeter=hexagonPerimeter2;whiteSpace=wrap;html=1;fixedSize=1;" vertex="1" parent="WIyWlLk6GJQsqaUBKTNV-1">
          <mxGeometry x="170.75" y="630" width="104.5" height="60" as="geometry" />
        </mxCell>
        <mxCell id="Jdti5JN_-8dRYhAPn4bn-12" style="edgeStyle=orthogonalEdgeStyle;rounded=0;orthogonalLoop=1;jettySize=auto;html=1;exitX=0.5;exitY=1;exitDx=0;exitDy=0;entryX=0.5;entryY=1;entryDx=0;entryDy=0;" edge="1" parent="WIyWlLk6GJQsqaUBKTNV-1" source="Jdti5JN_-8dRYhAPn4bn-10" target="ejfQ8xCvr1rSi-DFD9ne-4">
          <mxGeometry relative="1" as="geometry" />
        </mxCell>
        <mxCell id="Jdti5JN_-8dRYhAPn4bn-10" value="final figures &amp;amp; tables script" style="shape=hexagon;perimeter=hexagonPerimeter2;whiteSpace=wrap;html=1;fixedSize=1;" vertex="1" parent="WIyWlLk6GJQsqaUBKTNV-1">
          <mxGeometry x="29.75" y="630" width="104.5" height="60" as="geometry" />
        </mxCell>
        <mxCell id="Jdti5JN_-8dRYhAPn4bn-13" value="" style="endArrow=none;html=1;rounded=0;" edge="1" parent="WIyWlLk6GJQsqaUBKTNV-1">
          <mxGeometry width="50" height="50" relative="1" as="geometry">
            <mxPoint x="221" y="710" as="sourcePoint" />
            <mxPoint x="220.75" y="690" as="targetPoint" />
          </mxGeometry>
        </mxCell>
      </root>
    </mxGraphModel>
  </diagram>
</mxfile>
